# Generated with liteGL.js by Javi Agenjo

v 1.7427 0.0000 2.8702
v -1.7427 0.0000 -2.8702
v -1.7427 0.0000 2.8702
v 1.7427 0.0000 2.8702
v 1.7427 0.0000 -2.8702
v -1.7427 0.0000 -2.8702

vn 0.0000 0.2869 0.0000
vn 0.0000 0.2869 0.0000
vn 0.0000 0.2869 0.0000
vn 0.0000 0.2869 0.0000
vn 0.0000 0.2869 0.0000
vn 0.0000 0.2869 0.0000

vt 0.5000 0.5000  0.0000
vt 0.5000 0.5000  0.0000
vt 0.5000 0.5000  0.0000
vt 0.5000 0.5000  0.0000
vt 0.5000 0.5000  0.0000
vt 0.5000 0.5000  0.0000
g mesh_0
usemtl mat_0
f 1/1/1 2/2/2 3/3/3
f 4/4/4 5/5/5 6/6/6