# Generated with liteGL.js by Javi Agenjo

v -2.5499 -0.0003 -0.2682
v 0.0026 4.7778 -0.2114
v 2.5551 -0.0003 -0.2682
v 2.5551 -0.0003 -0.2682
v 0.0026 4.7778 -0.2114
v 2.5551 -0.0003 -0.1546
v 2.5551 -0.0003 -0.1546
v 0.0026 4.7778 -0.2114
v -2.5499 -0.0003 -0.1546
v -2.5499 -0.0003 -0.1546
v 0.0026 4.7778 -0.2114
v -2.5499 -0.0003 -0.2682
v 2.5551 -0.0003 -0.2682
v -2.5499 -0.0003 -0.1546
v -2.5499 -0.0003 -0.2682
v 2.5551 -0.0003 -0.2682
v 2.5551 -0.0003 -0.1546
v -2.5499 -0.0003 -0.1546

vn 0.0000 0.0741 -6.2312
vn 0.0000 0.0741 -6.2312
vn 0.0000 0.0741 -6.2312
vn 0.1387 0.0741 0.0000
vn 0.1387 0.0741 0.0000
vn 0.1387 0.0741 0.0000
vn 0.0000 0.0741 6.2312
vn 0.0000 0.0741 6.2312
vn 0.0000 0.0741 6.2312
vn -0.1387 0.0741 0.0000
vn -0.1387 0.0741 0.0000
vn -0.1387 0.0741 0.0000
vn 0.0000 -0.1050 0.0000
vn 0.0000 -0.1050 0.0000
vn 0.0000 -0.1050 0.0000
vn 0.0000 -0.1050 0.0000
vn 0.0000 -0.1050 0.0000
vn 0.0000 -0.1050 0.0000

vt 0.2500 0.4900  0.0000
vt 0.2500 0.2500  0.0000
vt 0.4900 0.2500  0.0000
vt 0.4900 0.2500  0.0000
vt 0.2500 0.2500  0.0000
vt 0.2500 0.0100  0.0000
vt 0.2500 0.0100  0.0000
vt 0.2500 0.2500  0.0000
vt 0.0100 0.2500  0.0000
vt 0.0100 0.2500  0.0000
vt 0.2500 0.2500  0.0000
vt 0.2500 0.4900  0.0000
vt 0.9900 0.2500  0.0000
vt 0.5100 0.2500  0.0000
vt 0.7500 0.4900  0.0000
vt 0.9900 0.2500  0.0000
vt 0.7500 0.0100  0.0000
vt 0.5100 0.2500  0.0000
g mesh_0
usemtl mat_0
f 1/1/1 2/2/2 3/3/3
f 4/4/4 5/5/5 6/6/6
f 7/7/7 8/8/8 9/9/9
f 10/10/10 11/11/11 12/12/12
f 13/13/13 14/14/14 15/15/15
f 16/16/16 17/17/17 18/18/18